G04 Layer_Physical_Order=1*
G04 Layer_Color=255*
%FSLAX44Y44*%
%MOMM*%
G71*
G01*
G75*
%ADD10C,0.3000*%
G04:AMPARAMS|DCode=11|XSize=0.32mm|YSize=0.4mm|CornerRadius=0.0528mm|HoleSize=0mm|Usage=FLASHONLY|Rotation=0.000|XOffset=0mm|YOffset=0mm|HoleType=Round|Shape=RoundedRectangle|*
%AMROUNDEDRECTD11*
21,1,0.3200,0.2944,0,0,0.0*
21,1,0.2144,0.4000,0,0,0.0*
1,1,0.1056,0.1072,-0.1472*
1,1,0.1056,-0.1072,-0.1472*
1,1,0.1056,-0.1072,0.1472*
1,1,0.1056,0.1072,0.1472*
%
%ADD11ROUNDEDRECTD11*%
G04:AMPARAMS|DCode=12|XSize=0.3mm|YSize=0.33mm|CornerRadius=0.0495mm|HoleSize=0mm|Usage=FLASHONLY|Rotation=270.000|XOffset=0mm|YOffset=0mm|HoleType=Round|Shape=RoundedRectangle|*
%AMROUNDEDRECTD12*
21,1,0.3000,0.2310,0,0,270.0*
21,1,0.2010,0.3300,0,0,270.0*
1,1,0.0990,-0.1155,-0.1005*
1,1,0.0990,-0.1155,0.1005*
1,1,0.0990,0.1155,0.1005*
1,1,0.0990,0.1155,-0.1005*
%
%ADD12ROUNDEDRECTD12*%
G04:AMPARAMS|DCode=13|XSize=0.9mm|YSize=0.8mm|CornerRadius=0.08mm|HoleSize=0mm|Usage=FLASHONLY|Rotation=270.000|XOffset=0mm|YOffset=0mm|HoleType=Round|Shape=RoundedRectangle|*
%AMROUNDEDRECTD13*
21,1,0.9000,0.6400,0,0,270.0*
21,1,0.7400,0.8000,0,0,270.0*
1,1,0.1600,-0.3200,-0.3700*
1,1,0.1600,-0.3200,0.3700*
1,1,0.1600,0.3200,0.3700*
1,1,0.1600,0.3200,-0.3700*
%
%ADD13ROUNDEDRECTD13*%
G04:AMPARAMS|DCode=14|XSize=0.1mm|YSize=0.1mm|CornerRadius=0.0165mm|HoleSize=0mm|Usage=FLASHONLY|Rotation=180.000|XOffset=0mm|YOffset=0mm|HoleType=Round|Shape=RoundedRectangle|*
%AMROUNDEDRECTD14*
21,1,0.1000,0.0670,0,0,180.0*
21,1,0.0670,0.1000,0,0,180.0*
1,1,0.0330,-0.0335,0.0335*
1,1,0.0330,0.0335,0.0335*
1,1,0.0330,0.0335,-0.0335*
1,1,0.0330,-0.0335,-0.0335*
%
%ADD14ROUNDEDRECTD14*%
G04:AMPARAMS|DCode=15|XSize=0.9mm|YSize=0.6mm|CornerRadius=0.099mm|HoleSize=0mm|Usage=FLASHONLY|Rotation=0.000|XOffset=0mm|YOffset=0mm|HoleType=Round|Shape=RoundedRectangle|*
%AMROUNDEDRECTD15*
21,1,0.9000,0.4020,0,0,0.0*
21,1,0.7020,0.6000,0,0,0.0*
1,1,0.1980,0.3510,-0.2010*
1,1,0.1980,-0.3510,-0.2010*
1,1,0.1980,-0.3510,0.2010*
1,1,0.1980,0.3510,0.2010*
%
%ADD15ROUNDEDRECTD15*%
G04:AMPARAMS|DCode=16|XSize=0.25mm|YSize=0.22mm|CornerRadius=0.022mm|HoleSize=0mm|Usage=FLASHONLY|Rotation=180.000|XOffset=0mm|YOffset=0mm|HoleType=Round|Shape=RoundedRectangle|*
%AMROUNDEDRECTD16*
21,1,0.2500,0.1760,0,0,180.0*
21,1,0.2060,0.2200,0,0,180.0*
1,1,0.0440,-0.1030,0.0880*
1,1,0.0440,0.1030,0.0880*
1,1,0.0440,0.1030,-0.0880*
1,1,0.0440,-0.1030,-0.0880*
%
%ADD16ROUNDEDRECTD16*%
%ADD17P,0.6788X4X90.0*%
G04:AMPARAMS|DCode=18|XSize=0.3mm|YSize=0.33mm|CornerRadius=0.0495mm|HoleSize=0mm|Usage=FLASHONLY|Rotation=180.000|XOffset=0mm|YOffset=0mm|HoleType=Round|Shape=RoundedRectangle|*
%AMROUNDEDRECTD18*
21,1,0.3000,0.2310,0,0,180.0*
21,1,0.2010,0.3300,0,0,180.0*
1,1,0.0990,-0.1005,0.1155*
1,1,0.0990,0.1005,0.1155*
1,1,0.0990,0.1005,-0.1155*
1,1,0.0990,-0.1005,-0.1155*
%
%ADD18ROUNDEDRECTD18*%
%ADD19C,0.0750*%
%ADD20C,0.0800*%
%ADD21C,0.1000*%
%ADD22C,1.0000*%
%ADD23C,1.5000*%
%ADD24C,0.4500*%
G36*
X37600Y83730D02*
X35100Y83729D01*
X35100Y84880D01*
X37400Y87180D01*
X37600D01*
X37600Y83730D01*
D02*
G37*
G36*
X31100Y84880D02*
X31100Y83729D01*
X28600Y83730D01*
X28600Y87180D01*
X28800D01*
X31100Y84880D01*
D02*
G37*
G36*
X37600Y94629D02*
X37600Y91180D01*
X37400D01*
X35100Y93480D01*
X35100Y94630D01*
X37600Y94629D01*
D02*
G37*
G36*
X31100Y93480D02*
X28800Y91180D01*
X28600D01*
X28600Y94629D01*
X31100Y94630D01*
X31100Y93480D01*
D02*
G37*
D10*
X45597Y21055D02*
G03*
X57861Y18049I5763J-3006D01*
G01*
D02*
G03*
X51281Y24549I-6500J0D01*
G01*
D02*
G03*
X45597Y21055I80J-6500D01*
G01*
D11*
X35760Y104810D02*
D03*
X42360D02*
D03*
X66230Y103870D02*
D03*
X72830D02*
D03*
D12*
X58950Y74807D02*
D03*
Y79853D02*
D03*
D13*
X33130Y73900D02*
D03*
Y58900D02*
D03*
X45130D02*
D03*
Y73900D02*
D03*
D14*
X51362Y11450D02*
D03*
D15*
X59760Y30570D02*
D03*
Y38790D02*
D03*
X42962D02*
D03*
Y30570D02*
D03*
D16*
X29850Y94580D02*
D03*
X36350D02*
D03*
Y83780D02*
D03*
X29850D02*
D03*
D17*
X33100Y89180D02*
D03*
D18*
X58007Y64770D02*
D03*
X63053D02*
D03*
D19*
X32180Y51280D02*
Y57950D01*
X33130Y58900D01*
X39400Y50390D02*
X43420D01*
X45130Y52100D01*
X13400Y58980D02*
Y70620D01*
X25800Y63300D02*
Y66570D01*
X33130Y73900D01*
X45130D01*
X59760Y38790D02*
X68560D01*
X74020Y33330D01*
Y29640D02*
Y33330D01*
X4520Y38860D02*
X9460Y33920D01*
X3020Y111030D02*
X7050Y115060D01*
X3020Y35110D02*
Y111030D01*
Y35110D02*
X8770Y29360D01*
X42962Y23691D02*
Y30570D01*
Y23691D02*
X45597Y21055D01*
X9460Y33920D02*
X16420D01*
X55410Y38790D02*
X59760D01*
X51281Y24549D02*
Y40449D01*
X8770Y29360D02*
X20070D01*
X45130Y73900D02*
X52500D01*
Y48610D02*
Y73900D01*
Y78150D01*
X52610Y78260D01*
X54300D01*
X33780Y43070D02*
X48660D01*
X51281Y40449D01*
X16420Y33920D02*
X27070Y44570D01*
X49630D01*
X55410Y38790D01*
X13400Y58980D02*
X26300Y46080D01*
X50257D01*
X19750Y760D02*
Y10120D01*
X24340Y14710D01*
X59760Y30570D02*
X63670D01*
X45130Y52100D02*
Y58900D01*
X63670Y30570D02*
X71370Y22870D01*
X75010D01*
X55893Y79853D02*
X58950D01*
X54300Y78260D02*
X55893Y79853D01*
X58950Y71010D02*
Y74807D01*
X57910Y69970D02*
X58950Y71010D01*
X65180Y68010D02*
X67710Y65480D01*
X70690D01*
X74560Y61610D01*
Y58000D02*
Y61610D01*
X57910Y69970D02*
X58265Y69615D01*
X4520Y38860D02*
Y77940D01*
X62860Y61550D02*
X64610Y59800D01*
X70560D01*
X58265Y59925D02*
X62040Y56150D01*
X72710D01*
X74560Y58000D01*
X45150Y115060D02*
X45160Y115050D01*
X45130Y73900D02*
X45160Y73930D01*
X29850Y83780D02*
X36350D01*
Y94580D02*
Y98110D01*
X37290Y99050D01*
X33100Y89180D02*
Y89500D01*
X29510Y93090D02*
X33100Y89500D01*
X71750Y79120D02*
X75010Y82380D01*
X68760Y79120D02*
X71750D01*
X65180Y68010D02*
Y75490D01*
Y83640D01*
X69980Y88440D02*
Y95960D01*
X57850Y115060D02*
X59873D01*
X67830Y98110D02*
X69980Y95960D01*
X28930Y100670D02*
X29850Y99750D01*
Y94580D02*
Y99750D01*
X50860Y101490D02*
X54240Y98110D01*
X44380Y112850D02*
Y114290D01*
X45150Y115060D01*
X65180Y83640D02*
X69980Y88440D01*
X51160Y86750D02*
X59100D01*
X62860Y82990D01*
Y61550D02*
Y82990D01*
X13400Y96020D02*
X25640Y83780D01*
X29850D01*
X24870Y73900D02*
X33130D01*
X33100Y89180D02*
X38550D01*
X50860Y101490D01*
X53270Y94620D02*
X64600D01*
X38930Y80280D02*
X53270Y94620D01*
X22770Y80280D02*
X38930D01*
X4775Y101715D02*
X18120Y115060D01*
X19750D01*
X4775Y89645D02*
Y101715D01*
Y89645D02*
X8500Y85920D01*
X17130D01*
X22770Y80280D01*
X4520Y77940D02*
X8770Y82190D01*
X16580D02*
X24870Y73900D01*
X65180Y75490D02*
X71180D01*
X80570Y66100D01*
X42360Y110830D02*
X44380Y112850D01*
X49860Y102490D02*
X50860Y101490D01*
X49860Y102490D02*
Y103530D01*
X56617Y115060D02*
X57850D01*
X46485Y104928D02*
X56617Y115060D01*
X46485Y101365D02*
Y104928D01*
X45010Y99890D02*
X46485Y101365D01*
X42360Y104810D02*
Y110830D01*
X22190Y104810D02*
X35760D01*
X13400Y96020D02*
X22190Y104810D01*
X35760D02*
X36715D01*
X41635Y99890D01*
X45010D01*
X60450Y98110D02*
Y102960D01*
Y98110D02*
X67830D01*
X54240D02*
X60450D01*
X59873Y115060D02*
X63560Y111373D01*
Y104990D02*
Y111373D01*
Y104990D02*
X64870Y103680D01*
X66230D01*
X75010Y82380D02*
Y94510D01*
X70105Y114615D02*
X70550Y115060D01*
X70105Y99415D02*
Y114615D01*
Y99415D02*
X75010Y94510D01*
X68830Y71110D02*
X76680Y63260D01*
X50257Y46080D02*
X51297Y45040D01*
X80980Y19820D02*
X89600D01*
X57861Y18049D02*
X79209D01*
X80980Y19820D01*
X80570Y37750D02*
Y66100D01*
X89600Y19820D02*
Y28720D01*
X80570Y37750D02*
X80690Y37630D01*
X89600Y28720D01*
X54120Y45040D02*
X61860Y52780D01*
X51297Y45040D02*
X54120D01*
X61860Y52780D02*
X71970D01*
X76680Y57490D01*
Y63260D01*
X8770Y82190D02*
X16580D01*
X24340Y14710D02*
Y25630D01*
X37500Y38790D01*
X42962D01*
X20070Y29360D02*
X33780Y43070D01*
X58265Y59925D02*
Y69615D01*
D20*
X83070Y103870D02*
X94260Y115060D01*
X95950D01*
X72830Y103870D02*
X83070D01*
D21*
X0Y122470D02*
X103430D01*
X0Y-6300D02*
X103430D01*
Y122470D01*
X0Y-6300D02*
Y122470D01*
D22*
X19750Y760D02*
D03*
X32450D02*
D03*
X45150D02*
D03*
X57850D02*
D03*
X70550D02*
D03*
X83250D02*
D03*
X95950D02*
D03*
X7050D02*
D03*
X83250Y115060D02*
D03*
X70550D02*
D03*
X57850D02*
D03*
X45150D02*
D03*
X32450D02*
D03*
X19750D02*
D03*
X7050D02*
D03*
X95950D02*
D03*
D23*
X13400Y19820D02*
D03*
Y70620D02*
D03*
Y96020D02*
D03*
Y45220D02*
D03*
X89600Y19820D02*
D03*
Y70620D02*
D03*
Y96020D02*
D03*
Y45220D02*
D03*
D24*
X98560Y83000D02*
D03*
X52500Y48610D02*
D03*
X25800Y63300D02*
D03*
X32180Y51280D02*
D03*
X39400Y50390D02*
D03*
X57910Y69970D02*
D03*
X70560Y59800D02*
D03*
X68830Y71110D02*
D03*
X74020Y29640D02*
D03*
X54300Y78260D02*
D03*
X37290Y99050D02*
D03*
X51160Y86750D02*
D03*
X75010Y22870D02*
D03*
X80690Y37630D02*
D03*
X64600Y94620D02*
D03*
X68760Y79120D02*
D03*
X28930Y100670D02*
D03*
X15690Y82050D02*
D03*
X49860Y103530D02*
D03*
X60450Y102960D02*
D03*
X29110Y38490D02*
D03*
M02*
