M48
;Layer_Color=9474304
;FILE_FORMAT=4:4
METRIC,LZ
;TYPE=PLATED
T1F00S00C0.2000
T2F00S00C0.6500
T3F00S00C1.0000
;TYPE=NON_PLATED
T4F00S00C0.8000
%
T01
X0002911Y0003849
X0003218Y0005128
X000394Y0005039
X000525Y0004861
X0005791Y0006997
X000543Y0007826
X0005116Y0008675
X000646Y0009462
X0006876Y0007912
X0006883Y0007111
X0007056Y000598
X0008069Y0003763
X0007402Y0002964
X0007501Y0002287
X0009856Y00083
X0001569Y0008205
X000258Y000633
X0002893Y0010067
X0003729Y0009905
X0004986Y0010353
X0006045Y0010296
T02
X0000705Y0000076
X0001975
X0003245
X0004515
X0005785
X0007055
X0008325
X0009595
Y0011506
X0008325
X0007055
X0005785
X0004515
X0003245
X0001975
X0000705
T03
X000134Y0001982
Y0004522
Y0007062
X000896
Y0004522
Y0001982
Y0009602
X000134
T04
X00051362Y0001805
M30
